<svg xmlns="http://www.w3.org/2000/svg" viewBox="0 0 900 600">
  <defs>
    <linearGradient id="bg" x1="0" y1="0" x2="1" y2="1">
      <stop offset="0" stop-color="#ff7447"/>
      <stop offset="0.5" stop-color="#f35f32"/>
      <stop offset="1" stop-color="#171717"/>
    </linearGradient>
    <linearGradient id="wall" x1="0" y1="0" x2="1" y2="0">
      <stop offset="0" stop-color="#f76b3a"/>
      <stop offset="1" stop-color="#ffd06a"/>
    </linearGradient>
  </defs>
  <rect width="900" height="600" fill="url(#bg)"/>
  <rect x="0" y="0" width="900" height="600" fill="url(#wall)" opacity=".92"/>
  <path d="M600 0h300v600H730c-80-160-120-350-130-600z" fill="#101012" opacity=".32"/>
  <rect x="40" y="180" width="170" height="150" rx="16" fill="#151515"/>
  <rect x="74" y="251" width="105" height="22" fill="#ff7447"/>
  <text x="250" y="215" font-family="Arial, sans-serif" font-size="46" letter-spacing="8" fill="#181818">INFOBIP</text>
  <text x="250" y="306" font-family="Arial Black, Arial, sans-serif" font-size="78" fill="#151515">SHIFT</text>
  <text x="705" y="210" font-family="Arial Black, Arial, sans-serif" font-size="54" fill="#161616">Sun.</text>
  <text x="705" y="276" font-family="Arial Black, Arial, sans-serif" font-size="54" fill="#161616">Sea.</text>
  <text x="705" y="342" font-family="Arial Black, Arial, sans-serif" font-size="54" fill="#161616">Software.</text>
  <circle cx="494" cy="164" r="32" fill="#302014"/>
  <rect x="464" y="196" width="64" height="150" rx="24" fill="#17213d"/>
  <rect x="442" y="206" width="26" height="116" rx="12" fill="#f1a978"/>
  <rect x="528" y="207" width="25" height="116" rx="12" fill="#f1a978"/>
  <rect x="452" y="344" width="28" height="118" rx="13" fill="#f1d3a2"/>
  <rect x="508" y="344" width="28" height="118" rx="13" fill="#f1d3a2"/>
  <rect x="430" y="455" width="58" height="18" rx="9" fill="#f7f7f7"/>
  <rect x="500" y="455" width="58" height="18" rx="9" fill="#f7f7f7"/>
</svg>
